<?xml version="1.0" encoding="UTF-8"?>
<svg id="nasa-dog" xmlns="http://www.w3.org/2000/svg" viewBox="0 0 186.02 179.29">
  <defs>
    <style>
      .cls-1 {
        fill: none;
      }

      .cls-2, .cls-3 {
        fill: #fff;
      }

      .cls-2, .cls-4 {
        stroke: #fff;
        stroke-miterlimit: 10;
        stroke-width: 4px;
      }

      .cls-4 {
        fill: #ed2024;
      }

      .cls-5 {
        fill: #dd1f26;
      }

      .cls-6 {
        fill: #0057a8;
      }
    </style>
  </defs>
  <circle class="cls-6" cx="96.38" cy="89.65" r="89.65"/>
  <path class="cls-3" d="M97.58,13.83c1.29,0,1.29-2,0-2s-1.29,2,0,2h0Z"/>
  <path class="cls-3" d="M88.42,25.38c1.29,0,1.29-2,0-2s-1.29,2,0,2h0Z"/>
  <path class="cls-3" d="M99.97,28.16c1.29,0,1.29-2,0-2s-1.29,2,0,2h0Z"/>
  <path class="cls-3" d="M93.99,33.74c1.29,0,1.29-2,0-2s-1.29,2,0,2h0Z"/>
  <path class="cls-3" d="M119.47,21.4c1.29,0,1.29-2,0-2s-1.29,2,0,2h0Z"/>
  <path class="cls-3" d="M119.47,21.4c1.29,0,1.29-2,0-2s-1.29,2,0,2h0Z"/>
  <path class="cls-3" d="M119.47,21c1.29,0,1.29-2,0-2s-1.29,2,0,2h0Z"/>
  <path class="cls-3" d="M119.87,22.19c1.29,0,1.29-2,0-2s-1.29,2,0,2h0Z"/>
  <path class="cls-3" d="M121.46,48.87c1.29,0,1.29-2,0-2s-1.29,2,0,2h0Z"/>
  <path class="cls-3" d="M72.1,37.72c1.29,0,1.29-2,0-2s-1.29,2,0,2h0Z"/>
  <path class="cls-3" d="M75.28,38.91c1.29,0,1.29-2,0-2s-1.29,2,0,2h0Z"/>
  <path class="cls-3" d="M77.67,40.9c1.29,0,1.29-2,0-2s-1.29,2,0,2h0Z"/>
  <path class="cls-3" d="M74.49,44.88c1.29,0,1.29-2,0-2s-1.29,2,0,2h0Z"/>
  <path class="cls-3" d="M54.98,62.4c1.29,0,1.29-2,0-2s-1.29,2,0,2h0Z"/>
  <path class="cls-3" d="M60.55,67.58c1.29,0,1.29-2,0-2s-1.29,2,0,2h0Z"/>
  <path class="cls-3" d="M64.13,124.11c1.29,0,1.29-2,0-2s-1.29,2,0,2h0Z"/>
  <path class="cls-3" d="M70.9,134.46c1.29,0,1.29-2,0-2s-1.29,2,0,2h0Z"/>
  <path class="cls-3" d="M80.06,144.81c1.29,0,1.29-2,0-2s-1.29,2,0,2h0Z"/>
  <path class="cls-3" d="M68.91,152.78c1.29,0,1.29-2,0-2s-1.29,2,0,2h0Z"/>
  <path class="cls-3" d="M80.46,156.36c1.29,0,1.29-2,0-2s-1.29,2,0,2h0Z"/>
  <path class="cls-3" d="M57.76,141.63c1.29,0,1.29-2,0-2s-1.29,2,0,2h0Z"/>
  <path class="cls-3" d="M43.43,140.83c1.29,0,1.29-2,0-2s-1.29,2,0,2h0Z"/>
  <path class="cls-3" d="M41.04,138.84c1.29,0,1.29-2,0-2s-1.29,2,0,2h0Z"/>
  <path class="cls-3" d="M42.64,133.67c1.29,0,1.29-2,0-2s-1.29,2,0,2h0Z"/>
  <path class="cls-3" d="M29.9,134.46c1.29,0,1.29-2,0-2s-1.29,2,0,2h0Z"/>
  <path class="cls-3" d="M124.25,132.87c1.29,0,1.29-2,0-2s-1.29,2,0,2h0Z"/>
  <path class="cls-3" d="M133.41,128.49c1.29,0,1.29-2,0-2s-1.29,2,0,2h0Z"/>
  <path class="cls-3" d="M156.5,135.66c1.29,0,1.29-2,0-2s-1.29,2,0,2h0Z"/>
  <path class="cls-3" d="M151.72,114.16c1.29,0,1.29-2,0-2s-1.29,2,0,2h0Z"/>
  <path class="cls-3" d="M151.32,99.83c1.29,0,1.29-2,0-2s-1.29,2,0,2h0Z"/>
  <path class="cls-3" d="M156.9,100.62c1.29,0,1.29-2,0-2s-1.29,2,0,2h0Z"/>
  <path class="cls-3" d="M158.09,91.86c1.29,0,1.29-2,0-2s-1.29,2,0,2h0Z"/>
  <path class="cls-3" d="M166.05,82.31c1.29,0,1.29-2,0-2s-1.29,2,0,2h0Z"/>
  <path class="cls-3" d="M168.44,87.48c1.29,0,1.29-2,0-2s-1.29,2,0,2h0Z"/>
  <path class="cls-3" d="M176.4,105.4c1.29,0,1.29-2,0-2s-1.29,2,0,2h0Z"/>
  <path class="cls-3" d="M168.44,108.58c1.29,0,1.29-2,0-2s-1.29,2,0,2h0Z"/>
  <path class="cls-3" d="M69.71,162.33c1.29,0,1.29-2,0-2s-1.29,2,0,2h0Z"/>
  <path class="cls-3" d="M69.71,162.33c1.29,0,1.29-2,0-2s-1.29,2,0,2h0Z"/>
  <path class="cls-3" d="M69.71,163.33c2.57,0,2.58-4,0-4s-2.58,4,0,4h0Z"/>
  <path class="cls-3" d="M150.13,139.84c2.57,0,2.58-4,0-4s-2.58,4,0,4h0Z"/>
  <path class="cls-3" d="M169.64,94.85c2.57,0,2.58-4,0-4s-2.58,4,0,4h0Z"/>
  <path class="cls-3" d="M69.71,64.2c2.57,0,2.58-4,0-4s-2.58,4,0,4h0Z"/>
  <line class="cls-1" x1="69.31" y1="58.02" x2="69.71" y2="65.59"/>
  <path class="cls-5" d="M.01,112.57c-.45-.54,11.43-12.75,30.7-22.64,10.92-5.6,12.1-4.24,34.28-13.56,9.84-4.13,17.05-7.52,28.83-13.07,8.24-3.87,17.27-8.14,28.87-14.15,10.98-5.69,16.46-8.54,20.66-11.2,21.71-13.74,31.55-29.56,32.88-28.68,1.3.86-6.58,16.9-20.95,34.56-13.14,16.15-25.69,26.25-73.34,58.72-7.48,5.09-67.05,45.64-68.17,44.23-.13-.17,1.51-1.68,4.8-4.72,2.95-2.72,8.49-7.81,14.8-12.76,12.14-9.52,33.07-23.14,46.59-32.15,11.96-7.97,19.84-13.22,30.15-20.75,13.27-9.69,35.85-27.01,34.62-28.62-.98-1.28-15.56,9.17-44.82,22.81-18.43,8.59-30.25,14.1-47.56,18.9-9.26,2.57-13.54,3.12-22.33,6.59C11.17,103.55.42,113.06.01,112.57Z"/>
  <path id="head" class="cls-3" d="M140.88,53.09l-16.13-23.31c-2.43-3.5-6.39-5.61-10.64-5.68l-30.62-.44h-.06c-15.81,0-27.93,2.64-35.74,15.55-7.27,12.01-10.37,32.48-10.37,68.43v4.39h10.04l-6.46,32.95h8.95l6.46-32.95h2.97c7.17.06,14.08-2.7,19.24-7.69,4.66-4.46,8.02-10.56,9.72-17.65l.02-.06,7.53-36.11h-8.97l-7.13,34.18c-2.17,8.97-8.67,18.54-20.41,18.54h-13.16c.24-31.1,3.07-49.54,9.09-59.49,5.05-8.35,12.43-11.31,28.2-11.31l30.58.44c1.42.02,2.74.73,3.55,1.89l18.25,26.37,24.51,4.09v4.66l-4.09,21.81c-22.13-2.44-33.45-2.51-33.94-.24-.42,1.94,6.98,5.58,22.22,10.93l-34.67,5.93-.23,36.66h8.78l.18-29.24,27.09-4.64c6.14-.75,10.67-2.73,13.84-6.05,2.71-2.83,4.37-6.45,5.36-11.74l4.24-22.61v-12.92l-28.19-4.7Z"/>
  <path class="cls-4" d="M112.17,142.96c-21.01.01-42.02.02-63.03.03,1.07-6.74,2.14-13.47,3.21-20.21h59.82v20.17Z"/>
  <ellipse id="eye" class="cls-2" cx="113.64" cy="58.3" rx="1.93" ry="3.85"/>
  <path id="eyebrow" class="cls-2" d="M103.19,47.47c.21-.83.89-3.08,2.99-4.49,2.77-1.87,6.89-1.5,10.09,1.06"/>
</svg>